# xmcd CD database file
#
# Track frame offsets:
#	150
#	22720
#	55490
#	70602
#	87297
#	107370
#	133332
#	145347
#	161172
#
# Disc length: 2356 seconds
#
# Revision: 1
# Processed by: cddbd v1.5.1PL0 Copyright (c) Steve Scherf et al.
# Submitted via: CDex 1.50beta8
#
DISCID=75093209
DTITLE=Ann Burton - Blue Burton
DYEAR=1967
DGENRE=Jazz
TTITLE0=I Can't Give You Anything But Love
TTITLE1=Go Away Little Boy
TTITLE2=He Was Too Good To Me
TTITLE3=But Not For Me
TTITLE4=It's Easy To Remember
TTITLE5=You've Changed
TTITLE6=The Good Life
TTITLE7=In The We Small Hours Of The Morning
TTITLE8=Sunny
EXTD=YEAR: 1967
EXTT0=
EXTT1=
EXTT2=
EXTT3=
EXTT4=
EXTT5=
EXTT6=
EXTT7=
EXTT8=
PLAYORDER=
